HIERARCHY
ROOT Hips
{
	OFFSET 0.000000 121.760803 0.000000
	CHANNELS 6 Xposition Yposition Zposition Xrotation Yrotation Zrotation 
	JOINT Spine
	{
		OFFSET 0.072000 7.257294 -0.789700
		CHANNELS 3 Xrotation Yrotation Zrotation
		JOINT Spine1
		{
			OFFSET 0.000000 12.508769 -0.658067
			CHANNELS 3 Xrotation Yrotation Zrotation
			JOINT Spine1_split
			{
				OFFSET 0.000000 12.508769 -0.658067
				CHANNELS 3 Xrotation Yrotation Zrotation
				JOINT Spine2
				{
					OFFSET 0.000000 12.508769 -0.658067
					CHANNELS 3 Xrotation Yrotation Zrotation
					JOINT Neck
					{
						OFFSET 0.000000 14.033295 7.520400
						CHANNELS 3 Xrotation Yrotation Zrotation
						JOINT Head
						{
							OFFSET 0.000000 8.198502 5.703100
							CHANNELS 3 Xrotation Yrotation Zrotation
							JOINT HeadTop_End
							{
								OFFSET 0.000000 17.760803 13.332701
								CHANNELS 3 Xrotation Yrotation Zrotation
								End Site
								{
									OFFSET 0.000000 0.000000 0.000000
								}
							}
						}
					}
					JOINT LeftShoulder
					{
						OFFSET 6.292450 5.785301 -0.669000
						CHANNELS 3 Xrotation Yrotation Zrotation
						JOINT LeftShoulder_split
						{
							OFFSET 6.292450 5.785301 -0.669000
							CHANNELS 3 Xrotation Yrotation Zrotation
							JOINT LeftArm
							{
								OFFSET 13.907140 -6.093903 1.965100
								CHANNELS 3 Xrotation Yrotation Zrotation
								JOINT LeftForeArm
								{
									OFFSET 34.140198 0.000000 0.000000
									CHANNELS 3 Xrotation Yrotation Zrotation
									JOINT LeftHand
									{
										OFFSET 40.960209 0.000000 0.000000
										CHANNELS 3 Xrotation Yrotation Zrotation
										JOINT LeftHandThumb1
										{
											OFFSET 10.006996 -7.170425 9.573125
											CHANNELS 3 Xrotation Yrotation Zrotation
											JOINT LeftHandThumb2
											{
												OFFSET 1.835007 -1.059448 1.059443
												CHANNELS 3 Xrotation Yrotation Zrotation
												JOINT LeftHandThumb3
												{
													OFFSET 2.112267 -1.219513 1.219518
													CHANNELS 3 Xrotation Yrotation Zrotation
													JOINT LeftHandThumb4
													{
														OFFSET 4.843811 -2.796570 2.796576
														CHANNELS 3 Xrotation Yrotation Zrotation
														End Site
														{
															OFFSET 0.000000 0.000000 0.000000
														}
													}
												}
											}
										}
										JOINT LeftHandIndex1
										{
											OFFSET 18.389847 -0.922348 4.596882
											CHANNELS 3 Xrotation Yrotation Zrotation
											JOINT LeftHandIndex2
											{
												OFFSET 4.711273 0.000000 0.000000
												CHANNELS 3 Xrotation Yrotation Zrotation
												JOINT LeftHandIndex3
												{
													OFFSET 2.886131 0.000000 0.000000
													CHANNELS 3 Xrotation Yrotation Zrotation
													JOINT LeftHandIndex4
													{
														OFFSET 6.145912 0.000000 0.000000
														CHANNELS 3 Xrotation Yrotation Zrotation
														End Site
														{
															OFFSET 0.000000 0.000000 0.000000
														}
													}
												}
											}
										}
										JOINT LeftHandMiddle1
										{
											OFFSET 18.013008 0.000000 0.000000
											CHANNELS 3 Xrotation Yrotation Zrotation
											JOINT LeftHandMiddle2
											{
												OFFSET 4.946693 0.000000 0.000000
												CHANNELS 3 Xrotation Yrotation Zrotation
												JOINT LeftHandMiddle3
												{
													OFFSET 3.342232 0.000000 0.000000
													CHANNELS 3 Xrotation Yrotation Zrotation
													JOINT LeftHandMiddle4
													{
														OFFSET 4.461754 0.000000 0.000000
														CHANNELS 3 Xrotation Yrotation Zrotation
														End Site
														{
															OFFSET 0.000000 0.000000 0.000000
														}
													}
												}
											}
										}
										JOINT LeftHandRing1
										{
											OFFSET 15.849892 -0.102921 -4.126150
											CHANNELS 3 Xrotation Yrotation Zrotation
											JOINT LeftHandRing2
											{
												OFFSET 3.527054 0.000000 0.000000
												CHANNELS 3 Xrotation Yrotation Zrotation
												JOINT LeftHandRing3
												{
													OFFSET 2.961098 0.000000 0.000000
													CHANNELS 3 Xrotation Yrotation Zrotation
													JOINT LeftHandRing4
													{
														OFFSET 4.927200 0.000000 0.000000
														CHANNELS 3 Xrotation Yrotation Zrotation
														End Site
														{
															OFFSET 0.000000 0.000000 0.000000
														}
													}
												}
											}
										}
										JOINT LeftHandPinky1
										{
											OFFSET 12.791824 -0.832031 -6.799156
											CHANNELS 3 Xrotation Yrotation Zrotation
											JOINT LeftHandPinky2
											{
												OFFSET 3.327133 0.000000 0.000000
												CHANNELS 3 Xrotation Yrotation Zrotation
												JOINT LeftHandPinky3
												{
													OFFSET 3.014900 0.000000 0.000000
													CHANNELS 3 Xrotation Yrotation Zrotation
													JOINT LeftHandPinky4
													{
														OFFSET 5.847786 0.000000 0.000000
														CHANNELS 3 Xrotation Yrotation Zrotation
														End Site
														{
															OFFSET 0.000000 0.000000 0.000000
														}
													}
												}
											}
										}
									}
								}
							}
						}
					}
					JOINT RightShoulder
					{
						OFFSET -6.292450 5.785301 -0.669000
						CHANNELS 3 Xrotation Yrotation Zrotation
						JOINT RightShoulder_split
						{
							OFFSET -6.292450 5.785301 -0.669000
							CHANNELS 3 Xrotation Yrotation Zrotation
							JOINT RightArm
							{
								OFFSET -13.907140 -6.093903 1.965100
								CHANNELS 3 Xrotation Yrotation Zrotation
								JOINT RightForeArm
								{
									OFFSET -34.140198 0.000000 0.000000
									CHANNELS 3 Xrotation Yrotation Zrotation
									JOINT RightHand
									{
										OFFSET -40.960209 0.000000 0.000000
										CHANNELS 3 Xrotation Yrotation Zrotation
										JOINT RightHandThumb1
										{
											OFFSET -10.007050 -7.170456 9.573117
											CHANNELS 3 Xrotation Yrotation Zrotation
											JOINT RightHandThumb2
											{
												OFFSET -1.835007 -1.059448 1.059443
												CHANNELS 3 Xrotation Yrotation Zrotation
												JOINT RightHandThumb3
												{
													OFFSET -2.112267 -1.219513 1.219518
													CHANNELS 3 Xrotation Yrotation Zrotation
													JOINT RightHandThumb4
													{
														OFFSET -4.843834 -2.796585 2.796590
														CHANNELS 3 Xrotation Yrotation Zrotation
														End Site
														{
															OFFSET 0.000000 0.000000 0.000000
														}
													}
												}
											}
										}
										JOINT RightHandIndex1
										{
											OFFSET -18.389870 -0.922424 4.596786
											CHANNELS 3 Xrotation Yrotation Zrotation
											JOINT RightHandIndex2
											{
												OFFSET -4.711273 0.000000 0.000000
												CHANNELS 3 Xrotation Yrotation Zrotation
												JOINT RightHandIndex3
												{
													OFFSET -2.886131 0.000000 0.000000
													CHANNELS 3 Xrotation Yrotation Zrotation
													JOINT RightHandIndex4
													{
														OFFSET -6.145920 0.000000 0.000000
														CHANNELS 3 Xrotation Yrotation Zrotation
														End Site
														{
															OFFSET 0.000000 0.000000 0.000000
														}
													}
												}
											}
										}
										JOINT RightHandMiddle1
										{
											OFFSET -18.013008 0.000000 0.000000
											CHANNELS 3 Xrotation Yrotation Zrotation
											JOINT RightHandMiddle2
											{
												OFFSET -4.946693 0.000000 0.000000
												CHANNELS 3 Xrotation Yrotation Zrotation
												JOINT RightHandMiddle3
												{
													OFFSET -3.342232 0.000000 0.000000
													CHANNELS 3 Xrotation Yrotation Zrotation
													JOINT RightHandMiddle4
													{
														OFFSET -4.461754 0.000000 0.000000
														CHANNELS 3 Xrotation Yrotation Zrotation
														End Site
														{
															OFFSET 0.000000 0.000000 0.000000
														}
													}
												}
											}
										}
										JOINT RightHandRing1
										{
											OFFSET -15.849876 -0.102936 -4.126237
											CHANNELS 3 Xrotation Yrotation Zrotation
											JOINT RightHandRing2
											{
												OFFSET -3.527054 0.000000 0.000000
												CHANNELS 3 Xrotation Yrotation Zrotation
												JOINT RightHandRing3
												{
													OFFSET -2.961098 0.000000 0.000000
													CHANNELS 3 Xrotation Yrotation Zrotation
													JOINT RightHandRing4
													{
														OFFSET -4.927200 0.000000 0.000000
														CHANNELS 3 Xrotation Yrotation Zrotation
														End Site
														{
															OFFSET 0.000000 0.000000 0.000000
														}
													}
												}
											}
										}
										JOINT RightHandPinky1
										{
											OFFSET -12.791786 -0.832077 -6.799222
											CHANNELS 3 Xrotation Yrotation Zrotation
											JOINT RightHandPinky2
											{
												OFFSET -3.327133 0.000000 0.000000
												CHANNELS 3 Xrotation Yrotation Zrotation
												JOINT RightHandPinky3
												{
													OFFSET -3.014900 0.000000 0.000000
													CHANNELS 3 Xrotation Yrotation Zrotation
													JOINT RightHandPinky4
													{
														OFFSET -5.847786 0.000000 0.000000
														CHANNELS 3 Xrotation Yrotation Zrotation
														End Site
														{
															OFFSET 0.000000 0.000000 0.000000
														}
													}
												}
											}
										}
									}
								}
							}
						}
					}
				}
			}
		}
	}
	JOINT LeftUpLeg
	{
		OFFSET 13.026900 -6.336304 -1.092800
		CHANNELS 3 Xrotation Yrotation Zrotation
		JOINT LeftLeg
		{
			OFFSET 0.524474 -46.096886 9.782700
			CHANNELS 3 Xrotation Yrotation Zrotation
			JOINT LeftFoot
			{
				OFFSET -0.524474 -53.427422 -12.948200
				CHANNELS 3 Xrotation Yrotation Zrotation
				JOINT LeftToeBase
				{
					OFFSET 0.192200 -14.009700 16.364100
					CHANNELS 3 Xrotation Yrotation Zrotation
					JOINT LeftToe_End
					{
						OFFSET -1.784700 -0.561700 9.474800
						CHANNELS 3 Xrotation Yrotation Zrotation
						End Site
						{
							OFFSET 0.000000 0.000000 0.000000
						}
					}
				}
			}
		}
	}
	JOINT RightUpLeg
	{
		OFFSET -12.883000 -6.336304 -1.092800
		CHANNELS 3 Xrotation Yrotation Zrotation
		JOINT RightLeg
		{
			OFFSET -0.524587 -46.096825 9.782800
			CHANNELS 3 Xrotation Yrotation Zrotation
			JOINT RightFoot
			{
				OFFSET 0.524587 -53.427383 -12.948300
				CHANNELS 3 Xrotation Yrotation Zrotation
				JOINT RightToeBase
				{
					OFFSET -0.192200 -14.009700 16.364100
					CHANNELS 3 Xrotation Yrotation Zrotation
					JOINT RightToe_End
					{
						OFFSET 1.784700 -0.561700 9.474800
						CHANNELS 3 Xrotation Yrotation Zrotation
						End Site
						{
							OFFSET 0.000000 0.000000 0.000000
						}
					}
				}
			}
		}
	}
}
MOTION
Frames: 5
Frame Time: 0.016667
5.381496 93.635849 1.654287 -3.059370 -43.012450 17.720740 0.346882 -1.830877 7.135771 0.027306 -1.386095 5.062936 0.000000 0.000000 0.000000 -0.080028 -1.272372 5.054156 -11.424516 3.372335 7.860923 -19.486308 29.446257 -6.823218 0.000000 0.000000 -0.000001 -0.548174 2.093925 14.135937 0.000000 0.000000 0.000000 -33.452071 -33.142007 -47.500745 0.001067 -87.864476 0.001067 -23.599350 -10.877272 -3.087991 14.035352 -26.979148 7.263438 13.226139 36.584874 -28.242993 0.587663 16.311293 -9.809448 -0.000002 0.000000 0.000001 0.201892 1.658372 -13.881106 0.378666 2.256068 -19.053513 0.095281 1.143807 -9.523032 0.000001 0.000001 -0.000001 0.201428 1.656501 -13.865110 0.379299 2.257888 -19.069507 0.095276 1.143808 -9.523025 -0.000001 0.000000 0.000000 0.201892 1.658370 -13.881106 0.378665 2.256069 -19.053513 0.095279 1.143808 -9.523047 -0.000000 -0.000001 0.000004 1.160825 5.598146 -13.431391 0.380587 -1.801555 -19.536766 0.095277 1.143807 -9.523038 0.000000 0.000002 -0.000002 -0.011250 -5.892458 7.391186 0.000000 0.000000 0.000000 118.821181 72.028129 -83.805970 -0.000013 25.801446 0.000020 -19.295713 3.278941 -3.516598 40.606608 -3.110601 26.124227 -37.849517 -44.265008 -46.874967 -12.282861 -22.415236 -17.633366 -0.000000 -0.000000 0.000001 3.635330 -6.110990 61.464449 7.728613 -6.904472 96.464435 2.305163 -5.174786 47.998745 0.000002 0.000002 0.000001 3.635331 -6.110992 61.464463 7.728613 -6.904476 96.464421 2.305166 -5.174785 47.998745 0.000001 0.000000 -0.000003 3.635327 -6.110986 61.464463 7.728613 -6.904485 96.464435 2.305161 -5.174787 47.998745 0.000002 -0.000002 -0.000001 3.635338 -6.110983 61.464449 7.728614 -6.904466 96.464449 2.305147 -5.174781 47.998748 -0.000003 -0.000001 -0.000002 -28.884382 30.900274 -0.242511 57.676269 3.222042 3.340433 -18.960223 19.687797 -6.763902 -0.000048 0.000002 -0.000003 0.000000 0.000000 -0.000000 -37.013225 10.607621 -35.586788 64.441715 3.979515 -9.289850 -21.852897 -6.713246 21.100713 -1.795046 -0.000006 -0.000001 -0.000000 -0.000001 -0.000000 
5.880697 94.048508 1.762066 -2.229570 -42.528931 18.317888 0.391762 -1.570913 7.106236 0.080689 -1.191920 5.048750 0.000000 0.000000 0.000000 -0.026329 -1.085811 5.036032 -11.396552 3.371370 7.365477 -19.078930 28.735583 -7.123456 0.000002 -0.000002 -0.000001 -0.621171 2.423847 13.794284 0.000000 0.000000 0.000000 -32.468373 -33.363736 -47.016649 -0.004695 -89.505306 -0.004965 -24.397905 -11.122541 -2.975588 14.573638 -27.004425 6.829636 13.798562 36.351288 -28.336097 0.869708 16.254211 -9.818240 0.000001 0.000001 -0.000000 0.215243 1.711479 -14.335239 0.390035 2.288686 -19.340143 0.098156 1.160832 -9.666175 -0.000000 0.000001 0.000000 0.214767 1.709612 -14.319245 0.390670 2.290506 -19.356155 0.098155 1.160830 -9.666168 0.000001 -0.000000 0.000004 0.215243 1.711479 -14.335239 0.390033 2.288689 -19.340138 0.098156 1.160833 -9.666173 0.000000 0.000001 -0.000004 1.205587 5.643527 -13.888379 0.392221 -1.769032 -19.822560 0.098156 1.160835 -9.666179 0.000000 0.000002 0.000002 -0.002585 -5.888129 7.492391 0.000000 0.000000 0.000000 118.408542 71.656000 -83.809215 -0.000002 25.428898 0.000009 -19.616667 4.100316 -3.061051 40.606615 -3.110602 26.124229 -37.849517 -44.265005 -46.874970 -12.282860 -22.415238 -17.633363 -0.000002 -0.000000 -0.000000 3.635327 -6.110988 61.464449 7.728614 -6.904475 96.464442 2.305160 -5.174787 47.998751 0.000001 0.000000 -0.000001 3.635332 -6.110992 61.464463 7.728612 -6.904474 96.464435 2.305166 -5.174786 47.998745 0.000005 0.000000 -0.000001 3.635330 -6.110986 61.464463 7.728609 -6.904489 96.464442 2.305159 -5.174788 47.998745 -0.000003 -0.000001 0.000002 3.635337 -6.110984 61.464449 7.728613 -6.904468 96.464449 2.305151 -5.174781 47.998745 -0.000000 0.000002 0.000001 -29.196200 30.335158 -0.833273 57.024266 3.367358 2.767499 -18.740123 19.762637 -6.250021 -0.000048 0.000002 -0.000003 0.000000 -0.000000 -0.000000 -37.766483 10.580595 -35.400495 63.821479 3.804082 -9.285967 -21.244176 -6.318114 21.033035 -2.160321 -0.000015 -0.000004 -0.000000 0.000002 0.000000 
6.378405 94.591850 1.833967 -1.346706 -42.081998 18.942874 0.447619 -1.301787 7.042989 0.140023 -0.990051 5.027505 0.000000 0.000000 0.000000 0.034597 -0.892062 5.011690 -11.378208 3.392041 6.943750 -18.730011 28.242393 -7.478143 0.000001 0.000000 0.000000 -0.713339 2.845089 13.378907 0.000000 0.000000 0.000000 -31.471753 -33.569447 -46.626239 -0.023646 -90.796826 -0.023793 -24.660321 -11.610471 -3.034253 15.085000 -27.036520 6.348050 14.365805 36.116814 -28.425004 1.150526 16.196965 -9.826651 0.000000 -0.000001 0.000001 0.228966 1.764283 -14.787766 0.401522 2.321125 -19.625743 0.101067 1.177795 -9.808801 -0.000001 -0.000000 -0.000002 0.228479 1.762418 -14.771766 0.402164 2.322944 -19.641736 0.101067 1.177789 -9.808799 -0.000000 0.000000 -0.000001 0.228965 1.764280 -14.787769 0.401520 2.321129 -19.625749 0.101065 1.177792 -9.808814 0.000000 -0.000000 -0.000003 1.250550 5.688377 -14.343768 0.403977 -1.736688 -20.107341 0.101066 1.177791 -9.808806 0.000001 -0.000000 0.000002 0.007039 -5.858266 7.548156 0.000000 0.000000 0.000000 118.019631 71.112521 -83.953482 0.000001 25.056462 -0.000006 -20.278277 5.167643 -2.331179 40.606605 -3.110602 26.124229 -37.849524 -44.265008 -46.874963 -12.282861 -22.415238 -17.633363 -0.000000 -0.000000 0.000000 3.635323 -6.110991 61.464449 7.728613 -6.904472 96.464435 2.305165 -5.174787 47.998751 0.000001 0.000000 0.000001 3.635325 -6.110995 61.464463 7.728609 -6.904473 96.464428 2.305169 -5.174786 47.998745 -0.000001 -0.000002 0.000000 3.635327 -6.110988 61.464463 7.728607 -6.904485 96.464435 2.305163 -5.174787 47.998745 0.000003 0.000000 0.000001 3.635330 -6.110985 61.464449 7.728613 -6.904464 96.464442 2.305147 -5.174780 47.998741 -0.000001 -0.000001 -0.000000 -29.422423 29.970918 -1.416728 56.121861 3.548159 2.297716 -18.394582 19.688860 -5.768065 -0.000048 0.000002 -0.000003 -0.000000 -0.000000 -0.000000 -38.693097 10.341833 -35.153174 63.084672 3.587152 -9.306583 -20.621997 -5.577165 20.810193 -2.520435 -0.000014 -0.000003 -0.000000 -0.000004 -0.000000 
6.859339 95.256767 1.870838 -0.439981 -41.643609 19.566144 0.505619 -1.041176 6.951928 0.196461 -0.793555 5.000016 0.000000 0.000000 0.000000 0.093393 -0.702952 4.982104 -11.340861 3.432848 6.607818 -18.475209 27.971486 -7.838868 0.000000 -0.000002 -0.000000 -0.812579 3.306774 12.932776 0.000000 0.000000 0.000000 -30.510530 -33.820607 -46.309352 -0.001058 -91.652895 -0.001071 -24.475988 -12.258162 -3.030209 15.586992 -27.071567 5.859857 14.927356 35.881716 -28.509753 1.429815 16.139628 -9.834652 0.000001 0.000001 -0.000003 0.243041 1.816740 -15.238222 0.413115 2.353357 -19.910029 0.104010 1.194660 -9.950766 -0.000002 -0.000001 -0.000001 0.242536 1.814880 -15.222217 0.413769 2.355169 -19.926042 0.104005 1.194658 -9.950775 -0.000001 0.000000 -0.000003 0.243043 1.816738 -15.238227 0.413113 2.353361 -19.910019 0.104007 1.194659 -9.950778 -0.000000 -0.000000 -0.000001 1.295658 5.732676 -14.797135 0.415837 -1.704557 -20.390792 0.104002 1.194663 -9.950764 -0.000001 -0.000000 -0.000001 0.016838 -5.810534 7.566558 0.000000 0.000000 0.000000 117.834342 70.381452 -84.393722 -0.000001 24.613656 0.000019 -21.332897 6.419947 -1.469729 40.606608 -3.110603 26.124229 -37.849524 -44.265008 -46.874970 -12.282859 -22.415235 -17.633361 -0.000000 -0.000000 -0.000001 3.635324 -6.110989 61.464456 7.728613 -6.904473 96.464442 2.305158 -5.174788 47.998751 -0.000003 0.000001 0.000001 3.635327 -6.110992 61.464463 7.728612 -6.904477 96.464428 2.305170 -5.174786 47.998748 0.000001 0.000000 -0.000001 3.635328 -6.110986 61.464463 7.728607 -6.904481 96.464435 2.305160 -5.174787 47.998745 0.000006 0.000001 -0.000002 3.635332 -6.110983 61.464449 7.728614 -6.904471 96.464449 2.305145 -5.174782 47.998745 -0.000001 -0.000000 0.000002 -29.547347 29.837859 -1.997552 54.980345 3.741213 1.985758 -17.926465 19.449599 -5.326566 -0.000048 0.000002 -0.000003 0.000000 -0.000000 0.000000 -39.707168 9.898156 -34.942988 62.160732 3.354295 -9.340548 -19.903120 -4.619631 20.522876 -2.930902 -0.000035 0.000000 -0.000000 0.000003 0.000000 
7.311697 96.006447 1.878946 0.433001 -41.182796 20.132901 0.564184 -0.802379 6.847809 0.248646 -0.611686 4.969982 0.000000 0.000000 0.000000 0.148294 -0.527142 4.950954 -11.272898 3.482789 6.354411 -18.308194 27.862782 -8.161821 -0.000001 -0.000002 0.000000 -0.900982 3.730480 12.504824 0.000000 0.000000 0.000000 -29.630006 -34.106386 -46.030161 0.001696 -92.013529 0.001670 -23.924848 -12.912427 -2.806853 16.070822 -27.112750 5.348510 15.482572 35.646279 -28.590229 1.707257 16.082254 -9.842255 0.000001 -0.000000 0.000000 0.257443 1.868776 -15.686043 0.424799 2.385339 -20.192657 0.106963 1.211427 -10.091925 -0.000000 -0.000001 0.000000 0.256920 1.866917 -15.670045 0.425469 2.387148 -20.208689 0.106962 1.211429 -10.091899 0.000000 -0.000000 0.000002 0.257441 1.868774 -15.686045 0.424797 2.385341 -20.192659 0.106965 1.211427 -10.091925 0.000001 0.000000 0.000001 1.340850 5.776361 -15.247885 0.427784 -1.672670 -20.672619 0.106961 1.211429 -10.091905 0.000002 0.000001 -0.000005 0.026410 -5.749833 7.553608 0.000000 0.000000 0.000000 117.949608 69.470100 -85.203871 -0.000000 24.027706 -0.000002 -22.763175 7.804055 -0.630990 40.606608 -3.110603 26.124229 -37.849521 -44.265008 -46.874967 -12.282859 -22.415240 -17.633364 0.000000 0.000000 0.000001 3.635327 -6.110989 61.464456 7.728614 -6.904472 96.464442 2.305156 -5.174788 47.998751 -0.000004 -0.000001 0.000001 3.635334 -6.110994 61.464463 7.728609 -6.904476 96.464428 2.305168 -5.174784 47.998745 0.000001 0.000001 -0.000002 3.635333 -6.110989 61.464463 7.728608 -6.904484 96.464442 2.305158 -5.174787 47.998745 0.000005 -0.000001 -0.000001 3.635334 -6.110983 61.464449 7.728614 -6.904468 96.464442 2.305143 -5.174782 47.998741 -0.000001 0.000002 0.000001 -29.569392 29.895998 -2.569217 53.665486 3.922173 1.838043 -17.365158 19.060357 -4.925611 -0.000048 0.000002 -0.000003 -0.000000 -0.000000 -0.000000 -40.773463 9.262331 -34.735593 61.102237 3.196867 -9.393258 -19.091571 -3.581131 20.137040 -3.275573 -0.000005 0.000002 -0.000000 0.000001 -0.000000 
